<svg xmlns="http://www.w3.org/2000/svg" width="227" height="498" viewBox="0 0 227 498" fill="none"><path d="M-28.3369 30.5989L9.47655 127.287L-17.8786 209.309L-41.6601 198.855L-28.3369 30.5989Z" fill="#BE9026" fill-opacity="0.03"/><path d="M-2.48642 75.5113L15.7719 108.386L29.4133 67.4836L13.5918 27.302L-2.48642 75.5113Z" fill="#BE9026" fill-opacity="0.03"/><path d="M64.0554 122.354L48.0176 45.6716L-5.65498 212.801L27.732 223.936L64.0554 122.354Z" fill="#BE9026" fill-opacity="0.03"/><path d="M25.9758 229.204L-7.53516 218.028L-46.9259 361.542L-27.9738 367.862L25.9758 229.204Z" fill="#BE9026" fill-opacity="0.03"/><path d="M207.714 126.251L116.039 171.39L81.4501 249.146L105.67 257.342L207.714 126.251Z" fill="#BE9026" fill-opacity="0.03"/><path d="M159.11 141.716L124.016 153.478L141.265 114.702L179.44 96.0144L159.11 141.716Z" fill="#BE9026" fill-opacity="0.03"/><path d="M103.958 95.0393L73.8533 116.573L78.9764 74.444L109.996 45.3853L103.958 95.0393Z" fill="#BE9026" fill-opacity="0.03"/><path d="M79.6203 252.705L102.687 261.18L28.0453 391.333L7.36113 382.132L79.6203 252.705Z" fill="#BE9026" fill-opacity="0.03"/><path d="M-8.67542 459.519L26.2402 394.024L6.48157 385.234L-25.6922 450.401L-8.67542 459.519Z" fill="#BE9026" fill-opacity="0.03"/><path d="M79.6593 131.565L142.229 86.501L70.2494 243.566L38.5988 229.486L79.6593 131.565Z" fill="#BE9026" fill-opacity="0.03"/><path d="M36.3774 234.481L68.1455 248.613L1.47004 379.037L-16.4964 371.045L36.3774 234.481Z" fill="#BE9026" fill-opacity="0.03"/></svg>
