<svg xmlns="http://www.w3.org/2000/svg" width="234" height="295" viewBox="0 0 234 295" fill="none"><mask id="mask0_190_176" style="mask-type:alpha" maskUnits="userSpaceOnUse" x="0" y="0" width="234" height="295"><rect width="234" height="295" fill="url(#paint0_linear_190_176)"/></mask><g mask="url(#mask0_190_176)"><path d="M50.0693 6.83594L90.6474 110.593L61.2923 198.612L35.7721 187.394L50.0693 6.83594Z" fill="#BE9026" fill-opacity="0.05"/><path d="M77.8097 55.0324L97.4029 90.311L112.042 46.4177L95.0635 3.29834L77.8097 55.0324Z" fill="#BE9026" fill-opacity="0.05"/><path d="M60.1465 202.822L35.3496 192.677L-0.311434 352.324L23.1027 360.133L60.1465 202.822Z" fill="#BE9026" fill-opacity="0.05"/><path d="M149.217 105.3L132.007 23.0107L74.4101 202.359L110.238 214.308L149.217 105.3Z" fill="#BE9026" fill-opacity="0.05"/><path d="M108.354 219.962L72.3926 207.969L30.1219 361.975L50.4596 368.758L108.354 219.962Z" fill="#BE9026" fill-opacity="0.05"/><path d="M303.38 109.481L205.003 157.92L167.885 241.362L193.875 250.157L303.38 109.481Z" fill="#BE9026" fill-opacity="0.05"/><path d="M251.223 126.078L213.562 138.699L232.072 97.0885L273.039 77.0343L251.223 126.078Z" fill="#BE9026" fill-opacity="0.05"/><path d="M192.038 75.9881L159.732 99.0957L165.23 53.8871L198.518 22.7038L192.038 75.9881Z" fill="#BE9026" fill-opacity="0.05"/><path d="M165.921 245.181L190.674 254.275L110.575 393.944L88.379 384.071L165.921 245.181Z" fill="#BE9026" fill-opacity="0.05"/><path d="M165.963 115.184L233.107 66.8253L155.865 235.373L121.9 220.265L165.963 115.184Z" fill="#BE9026" fill-opacity="0.05"/><path d="M119.517 225.625L153.607 240.79L82.0571 380.749L62.7771 372.173L119.517 225.625Z" fill="#BE9026" fill-opacity="0.05"/></g><defs><linearGradient id="paint0_linear_190_176" x1="117" y1="0" x2="117" y2="295" gradientUnits="userSpaceOnUse"><stop stop-color="white"/><stop offset="1" stop-color="#EBCFA2" stop-opacity="0.65"/></linearGradient></defs></svg>
